<?xml version="1.0" encoding="UTF-8"?>
<svg version="1.1" xmlns="http://www.w3.org/2000/svg" width="944" height="944">
<path d="M0 0 C1.19238785 -0.00700928 2.3847757 -0.01401855 3.61329651 -0.02124023 C6.87584907 -0.03581228 10.13775076 -0.0324205 13.40029335 -0.01972389 C16.818593 -0.00957873 20.23684996 -0.01899376 23.65515137 -0.02526855 C29.39501726 -0.0325406 35.13467712 -0.02296909 40.87451172 -0.00390625 C47.50538314 0.0178619 54.13576257 0.0108102 60.76662207 -0.01121187 C66.46531042 -0.0293787 72.16385088 -0.03191801 77.86255884 -0.0214572 C81.26371478 -0.01522921 84.66463965 -0.01436717 88.06578064 -0.02760315 C91.85799527 -0.03774998 95.64926228 -0.02229156 99.44140625 0 C100.56571548 -0.00809692 101.69002472 -0.01619385 102.84840393 -0.02453613 C110.43079736 0.05812868 110.43079736 0.05812868 114.41931152 2.37805176 C116.22070312 4.51757812 116.22070312 4.51757812 116.82226562 7.26757812 C116.00129782 11.70293665 114.03423942 14.76980543 111.59570312 18.51757812 C111.10642334 19.29302979 110.61714355 20.06848145 110.11303711 20.86743164 C108.49474821 23.42564988 106.85779452 25.97135941 105.22070312 28.51757812 C104.07748118 30.31753761 102.93557326 32.1183323 101.79492188 33.91992188 C99.43483553 37.64324691 97.06730481 41.36166831 94.69335938 45.07617188 C91.51845521 50.04577759 88.36534374 55.02878341 85.22070312 60.01757812 C80.90437827 66.86179907 76.56792072 73.69293949 72.22070312 80.51757812 C67.68751855 87.63480927 63.16398031 94.7579598 58.65820312 101.89257812 C58.18189453 102.64667969 57.70558594 103.40078125 57.21484375 104.17773438 C54.20359273 108.94947496 51.20978824 113.73192722 48.22070312 118.51757812 C59.17067277 120.78159084 70.13710618 122.89442785 81.15429688 124.80664062 C82.2568985 124.9982074 83.35950012 125.18977417 84.49551392 125.387146 C89.04718767 126.17584706 93.59941747 126.9611946 98.15258789 127.74121094 C101.52900341 128.32074317 104.9042 128.90698484 108.27929688 129.49414062 C109.81981972 129.75513046 109.81981972 129.75513046 111.39146423 130.02139282 C112.34759109 130.18851776 113.30371796 130.3556427 114.28881836 130.52783203 C115.12340073 130.67121002 115.95798309 130.81458801 116.81785583 130.96231079 C123.40990112 132.4856483 123.40990112 132.4856483 125.59570312 135.26757812 C126.46480181 138.39633338 126.03549218 140.37372224 125.22070312 143.51757812 C123.18164063 146.22851562 123.18164063 146.22851562 120.59570312 148.89257812 C119.23251953 150.32537109 119.23251953 150.32537109 117.84179688 151.78710938 C116.54435547 153.13869141 116.54435547 153.13869141 115.22070312 154.51757812 C114.02305623 155.86277905 112.83420586 157.21591495 111.65820312 158.58007812 C109.09396401 161.53465809 106.47932755 164.43718497 103.84570312 167.33007812 C100.79211446 170.70698795 97.87641108 174.14974944 95.03320312 177.70507812 C90.12665582 183.77574474 84.78869696 189.40826727 79.43945312 195.08789062 C75.48754296 199.28566735 71.6972454 203.60048318 67.96630859 207.99511719 C61.42665975 215.69550259 54.76979095 223.24166728 47.88867188 230.63867188 C43.65323963 235.20896992 39.58544121 239.90922476 35.55273438 244.65820312 C29.47907432 251.7986817 23.27342541 258.77524593 16.88867188 265.63867188 C12.65323963 270.20896992 8.58544121 274.90922476 4.55273438 279.65820312 C-1.52092568 286.7986817 -7.72657459 293.77524593 -14.11132812 300.63867188 C-18.34676037 305.20896992 -22.41455879 309.90922476 -26.44726562 314.65820312 C-32.52092568 321.7986817 -38.72657459 328.77524593 -45.11132812 335.63867188 C-49.44915416 340.31945927 -53.61268264 345.13374901 -57.72851562 350.00976562 C-58.52708984 350.95154663 -58.52708984 350.95154663 -59.34179688 351.91235352 C-60.4041991 353.16613498 -61.46295623 354.42301667 -62.51757812 355.68334961 C-68.89314226 363.20321902 -68.89314226 363.20321902 -73.77929688 364.01757812 C-76.77929688 363.51757812 -76.77929688 363.51757812 -79.21679688 361.45507812 C-81.17851034 357.7670568 -80.84731793 355.40409436 -79.77929688 351.51757812 C-78.37767254 348.05879625 -76.70318993 344.75926738 -75.00195312 341.43945312 C-74.51657578 340.47340149 -74.03119843 339.50734985 -73.53111267 338.51202393 C-71.97733282 335.42573251 -70.40964042 332.34674459 -68.84179688 329.26757812 C-67.82203566 327.24458449 -66.80314747 325.22115052 -65.78515625 323.19726562 C-61.70675923 315.11200891 -57.59501801 307.04853359 -53.35727406 299.04549503 C-47.31466755 287.62629976 -41.50504343 276.09854699 -35.74023438 264.53710938 C-34.72337226 262.50151381 -33.70632978 260.46600834 -32.68911743 258.43058777 C-30.04722389 253.14303173 -27.40773719 247.85427799 -24.76879883 242.56524658 C-22.06154882 237.14040965 -19.35195674 231.7167428 -16.64257812 226.29296875 C-11.35256142 215.70229754 -6.06509384 205.11035597 -0.77929688 194.51757812 C-2.14326599 194.83704407 -2.14326599 194.83704407 -3.53479004 195.16296387 C-12.12439465 197.17358449 -20.71612775 199.17487147 -29.31000519 201.1671524 C-33.7276279 202.19158314 -38.14444877 203.21923264 -42.55957031 204.25439453 C-46.82421541 205.25414855 -51.09079012 206.24524255 -55.35881042 207.23048401 C-56.98291462 207.6069723 -58.6063125 207.98652163 -60.22895813 208.36924744 C-62.51019174 208.9067479 -64.79374484 209.43308924 -67.078125 209.95703125 C-68.07291367 210.19547508 -68.07291367 210.19547508 -69.08779907 210.43873596 C-80.38029562 212.98793373 -80.38029562 212.98793373 -84.71679688 210.33007812 C-86.45142426 207.37100788 -87.00328081 204.64193846 -86.33059692 201.2651825 C-85.92452713 200.11334221 -85.92452713 200.11334221 -85.51025391 198.93823242 C-85.05085167 197.60665855 -85.05085167 197.60665855 -84.58216858 196.2481842 C-84.23729904 195.28907639 -83.8924295 194.32996857 -83.53710938 193.34179688 C-83.18269272 192.32601059 -82.82827606 191.3102243 -82.46311951 190.26365662 C-81.28848387 186.90658344 -80.096503 183.55594757 -78.90429688 180.20507812 C-78.07506159 177.84655291 -77.24686937 175.48766072 -76.41967773 173.12841797 C-74.2939579 167.07559907 -72.15363588 161.02806453 -70.00811768 154.98223877 C-68.50198934 150.73570943 -67.00174837 146.48711691 -65.50196838 142.23834229 C-62.38814644 133.41774442 -59.26263943 124.60134498 -56.13085938 115.78710938 C-52.27693368 104.93794373 -48.45307861 94.07833552 -44.63696289 83.21582031 C-43.03622999 78.65943852 -41.43253659 74.10411786 -39.82592773 69.54980469 C-36.29744318 59.54438767 -32.7778155 49.53672673 -29.32331848 39.50547791 C-27.87042798 35.29249511 -26.40556248 31.08373324 -24.93875122 26.87557983 C-24.25559548 24.90559948 -23.57813042 22.93363537 -22.90670776 20.95962524 C-21.98541213 18.25234565 -21.04484569 15.55251199 -20.09960938 12.85351562 C-19.70390999 11.66539024 -19.70390999 11.66539024 -19.30021667 10.45326233 C-18.9111187 9.36047218 -18.9111187 9.36047218 -18.51416016 8.24560547 C-18.29833282 7.61794281 -18.08250549 6.99028015 -17.86013794 6.34359741 C-13.63680798 -0.79147749 -7.4281183 -0.05349499 0 0 Z " fill="#912929" transform="translate(451.779296875,284.482421875)"/>
<path d="M0 0 C0.77923828 0.36432129 1.55847656 0.72864258 2.36132812 1.10400391 C31.09578223 14.6600837 57.22407661 32.50162632 80.6796875 53.8984375 C82.69397731 55.72282794 84.74148614 57.49093802 86.8125 59.25 C95.47497183 66.80325287 103.68036357 75.14174612 111 84 C111.4424707 84.52867676 111.88494141 85.05735352 112.34082031 85.60205078 C131.83838635 108.93737303 147.45672591 133.7872421 161 161 C161.4031543 161.80276367 161.80630859 162.60552734 162.22167969 163.43261719 C175.80261654 190.81447196 184.06682682 221.24510511 189.25 251.25 C189.40138428 252.12277588 189.55276855 252.99555176 189.70874023 253.89477539 C192.46817229 271.03944339 193.38381902 288.21958381 193.3125 305.5625 C193.31034485 306.51700043 193.3081897 307.47150085 193.30596924 308.45492554 C193.12757102 358.00064735 182.08594827 406.15082412 161 451 C160.63567871 451.77923828 160.27135742 452.55847656 159.89599609 453.36132812 C146.3399163 482.09578223 128.49837368 508.22407661 107.1015625 531.6796875 C105.27717206 533.69397731 103.50906198 535.74148614 101.75 537.8125 C94.19674713 546.47497183 85.85825388 554.68036357 77 562 C76.47132324 562.4424707 75.94264648 562.88494141 75.39794922 563.34082031 C52.06262697 582.83838635 27.2127579 598.45672591 0 612 C-0.80276367 612.4031543 -1.60552734 612.80630859 -2.43261719 613.22167969 C-29.81447196 626.80261654 -60.24510511 635.06682682 -90.25 640.25 C-91.12277588 640.40138428 -91.99555176 640.55276855 -92.89477539 640.70874023 C-110.03944339 643.46817229 -127.21958381 644.38381902 -144.5625 644.3125 C-145.51700043 644.31034485 -146.47150085 644.3081897 -147.45492554 644.30596924 C-197.00064735 644.12757102 -245.15082412 633.08594827 -290 612 C-290.77923828 611.63567871 -291.55847656 611.27135742 -292.36132812 610.89599609 C-321.09578223 597.3399163 -347.22407661 579.49837368 -370.6796875 558.1015625 C-372.69397731 556.27717206 -374.74148614 554.50906198 -376.8125 552.75 C-385.47497183 545.19674713 -393.68036357 536.85825388 -401 528 C-401.4424707 527.47132324 -401.88494141 526.94264648 -402.34082031 526.39794922 C-421.83838635 503.06262697 -437.45672591 478.2127579 -451 451 C-451.4031543 450.19723633 -451.80630859 449.39447266 -452.22167969 448.56738281 C-465.80261654 421.18552804 -474.06682682 390.75489489 -479.25 360.75 C-479.40138428 359.87722412 -479.55276855 359.00444824 -479.70874023 358.10522461 C-482.46817229 340.96055661 -483.38381902 323.78041619 -483.3125 306.4375 C-483.31034485 305.48299957 -483.3081897 304.52849915 -483.30596924 303.54507446 C-483.12757102 253.99935265 -472.08594827 205.84917588 -451 161 C-450.63567871 160.22076172 -450.27135742 159.44152344 -449.89599609 158.63867188 C-436.3399163 129.90421777 -418.49837368 103.77592339 -397.1015625 80.3203125 C-395.27717206 78.30602269 -393.50906198 76.25851386 -391.75 74.1875 C-384.19674713 65.52502817 -375.85825388 57.31963643 -367 50 C-366.47132324 49.5575293 -365.94264648 49.11505859 -365.39794922 48.65917969 C-352.74943559 38.09085639 -339.63602293 28.08670571 -325.75 19.1875 C-324.77546875 18.56230469 -323.8009375 17.93710938 -322.796875 17.29296875 C-319.5824498 15.80697051 -317.5030245 15.63611241 -314 16 C-311.125 17.5 -311.125 17.5 -309 20 C-308.15422886 25.32835821 -308.15422886 25.32835821 -309 28 C-312.52874 32.18172179 -316.53973323 34.7184961 -321.1875 37.4375 C-330.71763571 43.21625895 -339.374299 49.96172959 -348 57 C-348.62696777 57.50837402 -349.25393555 58.01674805 -349.89990234 58.54052734 C-358.51765202 65.58673624 -366.48314143 73.28411644 -374.375 81.125 C-375.29055664 82.03121094 -376.20611328 82.93742187 -377.14941406 83.87109375 C-383.19104486 89.9412746 -388.68478512 96.28903597 -394 103 C-394.60070312 103.74137207 -395.20140625 104.48274414 -395.8203125 105.24658203 C-448.11747522 169.79149982 -472.74742469 254.94849582 -464.74609375 337.47265625 C-458.57746816 394.23612396 -438.63120113 450.24139653 -404 496 C-403.21367187 497.05960938 -402.42734375 498.11921875 -401.6171875 499.2109375 C-391.95218745 512.12762179 -381.2434343 523.94039181 -369.875 535.375 C-368.96911133 536.29015381 -368.06322266 537.20530762 -367.12988281 538.14819336 C-361.0595988 544.19048601 -354.71137728 549.68445782 -348 555 C-347.25862793 555.60070312 -346.51725586 556.20140625 -345.75341797 556.8203125 C-281.20850018 609.11747522 -196.05150418 633.74742469 -113.52734375 625.74609375 C-56.76387604 619.57746816 -0.75860347 599.63120113 45 565 C46.05960938 564.21367188 47.11921875 563.42734375 48.2109375 562.6171875 C61.12762179 552.95218745 72.94039181 542.2434343 84.375 530.875 C85.29015381 529.96911133 86.20530762 529.06322266 87.14819336 528.12988281 C93.19048601 522.0595988 98.68445782 515.71137728 104 509 C104.60070312 508.25862793 105.20140625 507.51725586 105.8203125 506.75341797 C158.11747522 442.20850018 182.74742469 357.05150418 174.74609375 274.52734375 C168.57746816 217.76387604 148.63120113 161.75860347 114 116 C113.21367188 114.94039062 112.42734375 113.88078125 111.6171875 112.7890625 C101.95218745 99.87237821 91.2434343 88.05960819 79.875 76.625 C78.96911133 75.70984619 78.06322266 74.79469238 77.12988281 73.85180664 C71.0595988 67.80951399 64.71137728 62.31554218 58 57 C57.25862793 56.39929688 56.51725586 55.79859375 55.75341797 55.1796875 C-8.79149982 2.88252478 -93.94849582 -21.74742469 -176.47265625 -13.74609375 C-204.27584873 -10.72465247 -232.01094897 -4.94333252 -258.00195312 5.56176758 C-263.27958819 7.64253494 -267.31385902 8.49988053 -273 8 C-275.5 6.5 -275.5 6.5 -277 4 C-277.60392884 1.19316882 -277.86605819 -1.24582738 -277 -4 C-272.65650204 -8.72647305 -266.40181465 -10.32105471 -260.5 -12.375 C-259.37996582 -12.76856689 -258.25993164 -13.16213379 -257.10595703 -13.56762695 C-173.09090026 -42.71485654 -80.51229737 -37.8530509 0 0 Z " fill="#A30EB4" transform="translate(617,166)"/>
<path d="M0 0 C1.5846405 0.00323273 1.5846405 0.00323273 3.20129395 0.00653076 C19.12609246 0.05860013 34.72858268 0.45749919 50.4375 3.3125 C51.54287109 3.51117676 52.64824219 3.70985352 53.78710938 3.91455078 C113.60703575 15.02467901 170.98719514 42.16288929 214.4375 85.3125 C216.4375 88.3125 216.4375 88.3125 216.3125 91.8125 C215.4375 95.3125 215.4375 95.3125 213.8125 97.3125 C211.19965222 98.41264643 209.25691299 98.75337084 206.45703125 98.1875 C202.82020535 96.61177659 200.25499201 93.80555129 197.4140625 91.09765625 C158.30950201 53.90946045 106.64050931 30.89118854 54.1875 20.5625 C53.18340088 20.36366211 52.17930176 20.16482422 51.14477539 19.95996094 C34.37849051 16.81518684 17.84542025 15.93631346 0.8125 16 C-0.2012973 16.00182281 -1.2150946 16.00364563 -2.25961304 16.00552368 C-17.25515214 16.0508935 -31.7849304 16.58119006 -46.5625 19.3125 C-48.03227295 19.56193359 -48.03227295 19.56193359 -49.53173828 19.81640625 C-104.3650437 29.15267771 -155.33151563 54.05293592 -196.5625 91.3125 C-197.19172363 91.88000977 -197.82094727 92.44751953 -198.46923828 93.03222656 C-206.25874422 100.09466052 -213.79134839 107.24940804 -220.5625 115.3125 C-221.03864746 115.87630371 -221.51479492 116.44010742 -222.00537109 117.02099609 C-255.85123464 157.27155464 -278.1510476 203.95877946 -288.3125 255.5625 C-288.51133789 256.56659912 -288.71017578 257.57069824 -288.91503906 258.60522461 C-292.05981316 275.37150949 -292.93868654 291.90457975 -292.875 308.9375 C-292.87317719 309.9512973 -292.87135437 310.9650946 -292.86947632 312.00961304 C-292.8241065 327.00515214 -292.29380994 341.5349304 -289.5625 356.3125 C-289.31306641 357.78227295 -289.31306641 357.78227295 -289.05859375 359.28173828 C-279.72232229 414.1150437 -254.82206408 465.08151563 -217.5625 506.3125 C-216.71123535 507.25633545 -216.71123535 507.25633545 -215.84277344 508.21923828 C-208.78033948 516.00874422 -201.62559196 523.54134839 -193.5625 530.3125 C-192.99869629 530.78864746 -192.43489258 531.26479492 -191.85400391 531.75537109 C-151.60344536 565.60123464 -104.91622054 587.9010476 -53.3125 598.0625 C-52.30840088 598.26133789 -51.30430176 598.46017578 -50.26977539 598.66503906 C-33.50349051 601.80981316 -16.97042025 602.68868654 0.0625 602.625 C1.0762973 602.62317719 2.0900946 602.62135437 3.13461304 602.61947632 C18.13015214 602.5741065 32.6599304 602.04380994 47.4375 599.3125 C48.41734863 599.14621094 49.39719727 598.97992187 50.40673828 598.80859375 C105.2400437 589.47232229 156.20651563 564.57206408 197.4375 527.3125 C198.38133545 526.46123535 198.38133545 526.46123535 199.34423828 525.59277344 C207.13374422 518.53033948 214.66634839 511.37559196 221.4375 503.3125 C221.91364746 502.74869629 222.38979492 502.18489258 222.88037109 501.60400391 C256.72623464 461.35344536 279.0260476 414.66622054 289.1875 363.0625 C289.38633789 362.05840088 289.58517578 361.05430176 289.79003906 360.01977539 C292.93481316 343.25349051 293.81368654 326.72042025 293.75 309.6875 C293.74817719 308.6737027 293.74635437 307.6599054 293.74447632 306.61538696 C293.6991065 291.61984786 293.16880994 277.0900696 290.4375 262.3125 C290.27121094 261.33265137 290.10492187 260.35280273 289.93359375 259.34326172 C282.26383879 214.29765456 264.16124873 170.53196004 236.265625 134.22265625 C234.3112057 131.11145458 233.68991678 128.95451358 233.4375 125.3125 C234.24279388 122.67699276 234.99092962 121.64742778 237.1875 120 C240.47011672 118.99697823 242.16714883 119.2005806 245.4375 120.3125 C250.0351855 124.68172417 253.58042327 130.17279819 257.0625 135.4375 C257.57611084 136.21391846 258.08972168 136.99033691 258.61889648 137.7902832 C291.97164874 188.86279575 309.96848842 247.31158373 309.75 308.3125 C309.74784485 309.39510101 309.7456897 310.47770203 309.74346924 311.59310913 C309.69209447 327.67860953 309.33659756 343.44690861 306.4375 359.3125 C306.23882324 360.4164209 306.04014648 361.5203418 305.83544922 362.65771484 C292.47199452 434.62016865 254.41895047 505.37004747 195.4375 550.3125 C194.47328125 551.08207031 193.5090625 551.85164062 192.515625 552.64453125 C153.0320113 584.01439018 106.02434334 604.79522385 56.5625 614.125 C55.5307666 614.3199707 54.4990332 614.51494141 53.43603516 614.71582031 C35.93703105 617.82565743 18.62245844 618.69031735 0.875 618.625 C-0.7096405 618.62176727 -0.7096405 618.62176727 -2.32629395 618.61846924 C-18.25109246 618.56639987 -33.85358268 618.16750081 -49.5625 615.3125 C-50.66787109 615.11382324 -51.77324219 614.91514648 -52.91210938 614.71044922 C-124.87269983 601.34548146 -195.62105004 563.29263472 -240.5625 504.3125 C-241.71685547 502.86617187 -241.71685547 502.86617187 -242.89453125 501.390625 C-274.26439018 461.9070113 -295.04522385 414.89934334 -304.375 365.4375 C-304.5699707 364.4057666 -304.76494141 363.3740332 -304.96582031 362.31103516 C-308.07565743 344.81203105 -308.94031735 327.49745844 -308.875 309.75 C-308.87284485 308.693573 -308.8706897 307.637146 -308.86846924 306.54870605 C-308.81639987 290.62390754 -308.41750081 275.02141732 -305.5625 259.3125 C-305.36382324 258.20712891 -305.16514648 257.10175781 -304.96044922 255.96289062 C-291.59548146 184.00230017 -253.54263472 113.25394996 -194.5625 68.3125 C-193.59828125 67.54292969 -192.6340625 66.77335937 -191.640625 65.98046875 C-152.1570113 34.61060982 -105.14934334 13.82977615 -55.6875 4.5 C-54.6557666 4.3050293 -53.6240332 4.11005859 -52.56103516 3.90917969 C-35.06203105 0.79934257 -17.74745844 -0.06531735 0 0 Z " fill="#A30EB4" transform="translate(471.5625,162.6875)"/>
<path d="M0 0 C0.93463074 -0.00067474 1.86926147 -0.00134949 2.83221436 -0.00204468 C17.71835079 0.01499407 32.18688827 0.6255819 46.875 3.25 C48.37619385 3.51538574 48.37619385 3.51538574 49.90771484 3.78613281 C116.37561302 15.89401799 180.2705702 51.27250558 221.875 105.25 C223.06996094 106.75433594 223.06996094 106.75433594 224.2890625 108.2890625 C234.94414274 121.77637461 243.82684503 136.07531184 251.875 151.25 C252.23335937 151.92144043 252.59171875 152.59288086 252.9609375 153.28466797 C269.11900426 183.78605621 278.52485619 217.10746941 282.875 251.25 C283.00777344 252.25933594 283.14054688 253.26867187 283.27734375 254.30859375 C283.92114076 260.10276681 284.03149088 265.92489783 284.125 271.75 C284.14651123 272.54100098 284.16802246 273.33200195 284.19018555 274.14697266 C284.22253387 279.79511273 284.22253387 279.79511273 282.56933594 281.95898438 C280.875 283.25 280.875 283.25 277.4375 283.75 C273.875 283.25 273.875 283.25 271.71484375 281.48828125 C268.88845785 276.51360204 269.10343887 271.57285055 268.875 265.9375 C265.64361619 210.46789316 244.71631568 157.4554471 209.875 114.25 C209.09511719 113.26515625 208.31523438 112.2803125 207.51171875 111.265625 C195.52655174 96.5777376 181.93083813 82.64822952 166.57128906 71.48876953 C164.76617492 70.17052699 162.98816455 68.82041131 161.2109375 67.46484375 C152.78317922 61.08512607 144.10989309 55.38975454 134.875 50.25 C133.62203125 49.55173096 133.62203125 49.55173096 132.34375 48.83935547 C91.79982068 26.47757262 47.6112889 14.75191183 1.3125 14.9375 C0.34322571 14.93965515 -0.62604858 14.9418103 -1.62469482 14.94403076 C-16.30397377 14.99634767 -30.67737818 15.42745983 -45.125 18.25 C-46.13481934 18.44335938 -47.14463867 18.63671875 -48.18505859 18.8359375 C-71.61927018 23.46774141 -94.67637239 30.67016848 -116.125 41.25 C-116.95161133 41.65444336 -117.77822266 42.05888672 -118.62988281 42.47558594 C-136.40944076 51.25634867 -152.69908913 61.81038726 -168.125 74.25 C-169.10984375 75.02988281 -170.0946875 75.80976563 -171.109375 76.61328125 C-185.7972624 88.59844826 -199.72677048 102.19416187 -210.88623047 117.55371094 C-212.20447301 119.35882508 -213.55458869 121.13683545 -214.91015625 122.9140625 C-221.28987393 131.34182078 -226.98524546 140.01510691 -232.125 149.25 C-232.5905127 150.0853125 -233.05602539 150.920625 -233.53564453 151.78125 C-255.89742738 192.32517932 -267.62308817 236.5137111 -267.4375 282.8125 C-267.43534485 283.78177429 -267.4331897 284.75104858 -267.43096924 285.74969482 C-267.37865233 300.42897377 -266.94754017 314.80237818 -264.125 329.25 C-263.93164062 330.25981934 -263.73828125 331.26963867 -263.5390625 332.31005859 C-258.90725859 355.74427018 -251.70483152 378.80137239 -241.125 400.25 C-240.51833496 401.48991699 -240.51833496 401.48991699 -239.89941406 402.75488281 C-231.11865133 420.53444076 -220.56461274 436.82408913 -208.125 452.25 C-207.34511719 453.23484375 -206.56523437 454.2196875 -205.76171875 455.234375 C-193.77655174 469.9222624 -180.18083813 483.85177048 -164.82128906 495.01123047 C-163.01617492 496.32947301 -161.23816455 497.67958869 -159.4609375 499.03515625 C-151.03317922 505.41487393 -142.35989309 511.11024546 -133.125 516.25 C-132.2896875 516.7155127 -131.454375 517.18102539 -130.59375 517.66064453 C-90.04982068 540.02242738 -45.8612889 551.74808817 0.4375 551.5625 C1.40677429 551.56034485 2.37604858 551.5581897 3.37469482 551.55596924 C18.05397377 551.50365233 32.42737818 551.07254017 46.875 548.25 C47.88481934 548.05664062 48.89463867 547.86328125 49.93505859 547.6640625 C73.36927018 543.03225859 96.42637239 535.82983152 117.875 525.25 C118.70161133 524.84555664 119.52822266 524.44111328 120.37988281 524.02441406 C138.15944076 515.24365133 154.44908913 504.68961274 169.875 492.25 C170.85984375 491.47011719 171.8446875 490.69023438 172.859375 489.88671875 C187.5472624 477.90155174 201.47677048 464.30583813 212.63623047 448.94628906 C213.95447301 447.14117492 215.30458869 445.36316455 216.66015625 443.5859375 C223.03987393 435.15817922 228.73524546 426.48489309 233.875 417.25 C234.3405127 416.4146875 234.80602539 415.579375 235.28564453 414.71875 C250.33347856 387.43566961 260.47339899 358.79491255 265.74682617 328.09936523 C265.96830322 326.87677002 266.18978027 325.6541748 266.41796875 324.39453125 C266.6967688 322.76028198 266.6967688 322.76028198 266.98120117 321.09301758 C268.01633791 317.80042886 269.18071847 316.3719781 271.875 314.25 C274.875 313.6875 274.875 313.6875 277.875 314.25 C280.67996218 316.93602385 281.82960474 318.39937938 282.0390625 322.32421875 C281.39337791 326.65217707 280.70489745 330.95329897 279.875 335.25 C279.60768066 336.64605469 279.60768066 336.64605469 279.33496094 338.0703125 C266.62714906 402.21649962 231.06234767 464.02536813 178.875 504.25 C177.87210938 505.04664063 176.86921875 505.84328125 175.8359375 506.6640625 C162.34862539 517.31914274 148.04968816 526.20184503 132.875 534.25 C132.20355957 534.60835937 131.53211914 534.96671875 130.84033203 535.3359375 C100.44556203 551.4375234 66.96486395 561.15524909 32.875 565.25 C32.10994141 565.34571289 31.34488281 565.44142578 30.55664062 565.54003906 C20.98882085 566.58034371 11.36263253 566.49376091 1.75 566.5 C0.81536926 566.50067474 -0.11926147 566.50134949 -1.08221436 566.50204468 C-15.96835079 566.48500593 -30.43688827 565.8744181 -45.125 563.25 C-46.1257959 563.07307617 -47.1265918 562.89615234 -48.15771484 562.71386719 C-114.62561302 550.60598201 -178.5205702 515.22749442 -220.125 461.25 C-220.92164063 460.24710938 -221.71828125 459.24421875 -222.5390625 458.2109375 C-233.19414274 444.72362539 -242.07684503 430.42468816 -250.125 415.25 C-250.48335937 414.57855957 -250.84171875 413.90711914 -251.2109375 413.21533203 C-267.3125234 382.82056203 -277.03024909 349.33986395 -281.125 315.25 C-281.22071289 314.48494141 -281.31642578 313.71988281 -281.41503906 312.93164062 C-282.45534371 303.36382085 -282.36876091 293.73763253 -282.375 284.125 C-282.37567474 283.19036926 -282.37634949 282.25573853 -282.37704468 281.29278564 C-282.36000593 266.40664921 -281.7494181 251.93811173 -279.125 237.25 C-278.94807617 236.2492041 -278.77115234 235.2484082 -278.58886719 234.21728516 C-266.48098201 167.74938698 -231.10249442 103.8544298 -177.125 62.25 C-176.12210937 61.45335937 -175.11921875 60.65671875 -174.0859375 59.8359375 C-160.59862539 49.18085726 -146.29968816 40.29815497 -131.125 32.25 C-130.45355957 31.89164063 -129.78211914 31.53328125 -129.09033203 31.1640625 C-98.69556203 15.0624766 -65.21486395 5.34475091 -31.125 1.25 C-30.35994141 1.15428711 -29.59488281 1.05857422 -28.80664062 0.95996094 C-19.23882085 -0.08034371 -9.61263253 0.00623909 0 0 Z " fill="#A30EB4" transform="translate(471.125,188.75)"/>
</svg>
